<svg id="svg" xmlns="http://www.w3.org/2000/svg" xmlns:xlink="http://www.w3.org/1999/xlink" width="400" height="400" viewBox="0, 0, 400,400"><g id="svgg"><path id="path0" d="M100.033 10.524 C 72.893 15.649,55.107 44.051,62.101 71.094 C 65.778 85.312,77.984 99.360,90.682 103.990 L 95.313 105.678 95.313 199.950 L 95.313 294.223 91.345 295.649 C 78.218 300.370,65.863 314.443,62.089 328.974 C 51.167 371.024,97.139 405.527,134.665 383.445 C 167.006 364.415,166.031 315.446,132.969 298.167 L 127.266 295.186 129.745 290.757 C 138.714 274.730,153.069 263.570,171.875 258.004 C 178.248 256.118,179.683 256.016,207.422 255.474 C 235.213 254.931,236.627 254.830,244.085 252.855 C 271.153 245.685,293.645 224.188,301.128 198.334 C 302.235 194.509,302.699 193.874,304.676 193.479 C 323.359 189.742,339.230 168.190,339.283 146.484 C 339.388 102.833,286.774 81.144,255.834 112.084 C 232.626 135.292,238.544 175.203,267.372 189.896 C 273.466 193.002,273.442 192.768,268.538 201.147 C 257.334 220.293,242.941 226.562,210.187 226.563 C 167.266 226.565,149.094 231.605,126.758 249.705 L 124.219 251.763 124.245 178.811 L 124.270 105.859 131.380 102.473 C 182.174 78.279,155.504 0.049,100.033 10.524 " stroke="none" fill="#000000" fill-rule="evenodd"></path></g></svg>